<?xml version="1.0" standalone="no"?>
<!DOCTYPE svg PUBLIC "-//W3C//DTD SVG 20010904//EN"
 "http://www.w3.org/TR/2001/REC-SVG-20010904/DTD/svg10.dtd">
<svg version="1.0" xmlns="http://www.w3.org/2000/svg"
 width="500.000000pt" height="500.000000pt" viewBox="0 0 500.000000 500.000000"
 preserveAspectRatio="xMidYMid meet">
<metadata>
Created by potrace 1.14, written by Peter Selinger 2001-2017
</metadata>
<g transform="translate(0.000000,500.000000) scale(0.100000,-0.100000)"
fill="#000000" stroke="none">
<path d="M1639 3891 c-129 -24 -251 -129 -293 -256 -12 -34 -46 -335 -106
-938 -83 -836 -87 -892 -75 -952 17 -80 36 -116 93 -178 75 -79 167 -118 282
-118 135 0 237 48 312 147 63 84 75 137 103 484 14 170 25 317 25 327 1 10 46
-90 101 -222 55 -132 115 -261 134 -287 76 -103 257 -147 415 -99 63 19 81 31
129 79 53 54 61 70 156 299 55 133 101 239 102 235 1 -4 14 -150 28 -324 28
-354 40 -411 102 -492 97 -126 273 -179 436 -132 149 43 258 191 259 350 1
119 -169 1767 -188 1822 -44 131 -161 228 -304 254 -124 23 -238 -10 -328 -94
-43 -40 -70 -90 -282 -525 -129 -264 -237 -481 -240 -481 -3 0 -109 212 -235
472 -254 520 -269 544 -378 598 -69 33 -167 45 -248 31z m217 -80 c89 -40 102
-62 379 -629 143 -292 262 -532 265 -531 3 0 120 234 260 521 140 287 267 538
281 558 15 20 53 50 90 70 57 30 72 34 139 34 112 0 172 -24 246 -98 44 -44
65 -75 77 -111 20 -61 190 -1754 185 -1835 -7 -103 -71 -195 -171 -248 -47
-24 -62 -27 -152 -27 -89 0 -106 3 -151 27 -53 28 -112 87 -138 136 -28 54
-36 116 -66 491 -16 206 -34 379 -39 384 -5 5 -19 7 -32 5 -20 -3 -39 -42
-145 -297 -69 -164 -136 -310 -152 -330 -16 -20 -51 -47 -78 -61 -43 -22 -61
-25 -154 -25 -93 0 -111 3 -154 25 -27 14 -62 42 -79 62 -17 21 -81 161 -151
330 -106 254 -125 293 -145 296 -13 2 -27 0 -32 -5 -5 -5 -22 -179 -39 -388
-31 -376 -38 -434 -67 -488 -25 -49 -85 -108 -137 -134 -67 -35 -190 -43 -263
-19 -129 43 -212 157 -214 293 -1 94 171 1761 186 1804 37 103 132 187 238
209 58 12 163 3 213 -19z"/>
</g>
</svg>
